# xmcd
#
# Track frame offsets:
#	150
#	18947
#	37657
#	56162
#	73245
#	91277
#	110352
#	128817
#	145072
#	168855
#
# Disc length: 2787 seconds
#
# Revision: 1
# Processed by: cddbd v1.5.2PL0 Copyright (c) Steve Scherf et al.
# Submitted via: EZCDAudioConverter 8.0.2.1
#
DISCID=7e0ae10a
DTITLE=Various Artist - Top Hist 1. Cà Phê Đắng Trở Lại
DYEAR=1999
DGENRE=Miscellaneous
TTITLE0=Don Hồ - Cà Phê Đắng Trở Lại
TTITLE1=Phương Vy - Foolish Boat
TTITLE2=Thiên Kim - Cuộc tình hai mặt
TTITLE3=Tommy Ngô - She's Not There
TTITLE4=Bảo Hân - Nếu thời gian trở lại
TTITLE5=Trúc Linh, Trúc Lam - Một ngày không có anh
TTITLE6=Bảo Hân - I'll Be There
TTITLE7=Tuấn Ngọc, Thái Châu, Thái Hiền, Duy Quang - Yesterday
TTITLE8=Lynda Trang Đài - Frozen
TTITLE9=Bảo Hân, Tommy Ngô - Westside Story
EXTD=
EXTT0=
EXTT1=
EXTT2=
EXTT3=
EXTT4=
EXTT5=
EXTT6=
EXTT7=
EXTT8=
EXTT9=
PLAYORDER=
